<svg xmlns="http://www.w3.org/2000/svg" viewBox="0 0 656.16 167.63"><defs><style>.cls-1{font-size:97.53px;}.cls-1,.cls-2,.cls-4{fill:#fff;}.cls-1,.cls-2{font-family:Sequel100Black-95;}.cls-2{font-size:60.48px;}.cls-3{letter-spacing:-0.03em;}</style></defs><g id="Layer_2" data-name="Layer 2"><g id="Layer_1-2" data-name="Layer 1"><text class="cls-1" transform="translate(0 83.58)">HEIGHT</text><text class="cls-2" transform="translate(1.16 135.46)"><tspan xml:space="preserve">M   </tspan></text><text class="cls-2" transform="translate(148.31 135.46)"><tspan class="cls-3">S</tspan><tspan x="65.2" y="0">TERING</tspan></text><polygon class="cls-4" points="80.26 135.47 102.71 92.29 115.28 92.29 115.28 108.21 109.91 119.14 115.28 119.14 115.28 130.46 104.29 130.46 101.86 135.47 80.26 135.47"/><polygon class="cls-4" points="152.44 135.47 130 92.29 117.43 92.29 117.43 108.21 122.8 119.14 117.43 119.14 117.43 130.46 128.41 130.46 130.85 135.47 152.44 135.47"/><path class="cls-4" d="M634,45.8c-6.43,1.07-8.84-.42-8.84-.42,2.08-1.41,7.85-.59,7.85-.59l-.7-.7a49.54,49.54,0,0,1-12.86-.84c2.44-.84,11.27-.77,11.27-.77l-.79-.8a4.27,4.27,0,0,1-2.46-.79c.12-.4,1-.68,1-.68L602,13.93,548.06,68.08h30.42v67.49s46.08.44,47.15,0a14.81,14.81,0,0,1,3.54-.54v-.43a2.37,2.37,0,0,1-1.71-.77,2.07,2.07,0,0,1,1.7-.75v-.42a81.85,81.85,0,0,1-13.64-.88c1.78-.8,13.67-.88,13.67-.88v-.29a13.15,13.15,0,0,1-5.64-.93c1.4-.79,5.62-.76,5.62-.76v-.54a2.55,2.55,0,0,1-1.71-.79,2.44,2.44,0,0,1,1.71-.74v-.57a9.37,9.37,0,0,1-4.13-.78c1.14-.94,4.1-.87,4.1-.87v-2.44c-3.3,0-4.07-.86-4.07-.86,1.44-1,4.12-.8,4.12-.8v-.43a92.85,92.85,0,0,1-13.67-.77c2.36-.82,13.67-.94,13.67-.94v-.25c-3.94,0-4.94-.91-4.94-.91a12.67,12.67,0,0,1,4.91-.79V116c-7.17,0-9.72-.79-9.72-.79,2.33-1.11,9.72-.91,9.72-.91V114c-3,0-4-.78-4-.78.21-.69,4.07-.85,4.07-.85V112a2.13,2.13,0,0,1-1.74-.83c.39-.77,1.74-.8,1.74-.8l0-.81c-7.4,0-8-.77-8-.77.93-.88,8-.86,8-.86l0-.35a3.25,3.25,0,0,1-2.51-.88,4.6,4.6,0,0,1,2.47-.79v-.45a2.14,2.14,0,0,1-1.71-.77,2.73,2.73,0,0,1,1.77-.83v-.45a1.34,1.34,0,0,1-.93-.77,1.27,1.27,0,0,1,.86-.65v-.6c-7.28,0-8.4-.75-8.4-.75,1.09-.7,8.38-.9,8.38-.9v-.26c-12.68.09-17.66-.88-17.66-.88,3.37-1,17.72-.8,17.72-.8V97.3c-7.94-.08-9.61-.78-9.61-.78,1.65-.89,9.57-.85,9.57-.85v-.34c-13.84-.14-14.47-.86-14.47-.86,2.75-.84,14.52-.74,14.52-.74l0-.47c-4,.42-25.62-.81-25.62-.81.55-.72,25.62-.84,25.62-.84V91.3c-4.87.19-22.56-.86-22.56-.86,1.29-.86,22.56-.8,22.56-.8V89.2c-6.2.21-17.54-.8-17.54-.8,1.17-.73,17.54-.85,17.54-.85v-.29a30.2,30.2,0,0,1-7.32-.8c1.89-.85,7.3-.86,7.3-.86v-.49c-2.73.42-22.4-.74-22.4-.74,2.1-.7,22.42-.9,22.42-.9v-.26c-6.56,0-31.31-.87-31.31-.87,4.42-1.17,31.33-.79,31.33-.79v-.42c-5.3.15-43.41-.86-43.41-.86.89-.56,43.44-.81,43.44-.81l0-.31c-8.7,0-22.55-.92-22.55-.92,2.56-1,22.44-.75,22.44-.75v-.42c-9.9,0-13.58-.91-13.58-.91,2.33-1,13.6-.84,13.6-.84V75c-4.59-.23-5.72-.87-5.72-.87,1.55-.86,5.74-.76,5.74-.76V73c-11.5,0-13.68-.87-13.68-.87,1.62-.9,13.66-.84,13.66-.84v-.34c-4.49,0-5.73-.87-5.73-.87a15,15,0,0,1,5.73-.79v-.51a2.6,2.6,0,0,1-1.66-.74,3.61,3.61,0,0,1,4.77,0h23.86Zm-1.7,1.54s-2.52,2.21-4.73,0A3.87,3.87,0,0,1,632.26,47.34Zm-1.55,2.2s-.75,1.84-1.65,0C629.06,49.54,629.92,47.6,630.71,49.54Zm1.66,2a4.17,4.17,0,0,1-4.93,0A3.94,3.94,0,0,1,632.37,51.52Zm2.32,2a13.31,13.31,0,0,1-9.63,0A13.13,13.13,0,0,1,634.69,53.55Zm5.74,2a64.68,64.68,0,0,1-21,0A65.12,65.12,0,0,1,640.43,55.56Zm-4.9,2a18,18,0,0,1-11.25,0A18.84,18.84,0,0,1,635.53,57.58Zm-19.9,2s16.62-2,28.63,0C644.26,59.61,629,61.65,615.63,59.61Zm9.43,2.06a14.78,14.78,0,0,1,9.63,0A13.46,13.46,0,0,1,625.06,61.67Zm5.67,2.16s-.68,1.84-1.67,0C629.06,63.83,629.85,61.76,630.73,63.83Zm-5.67,2a13.42,13.42,0,0,1,9.7,0A15.36,15.36,0,0,1,625.06,65.88Z"/></g></g></svg>