<svg width="64" height="64" viewBox="0 0 64 64" fill="none" xmlns="http://www.w3.org/2000/svg">
<g clip-path="url(#clip0)">
<path d="M32.2627 23.2505C32.9853 22.2251 33.6173 21.1376 34.1515 20.0006C34.0681 19.9851 33.9839 19.9743 33.8993 19.9681C32.9442 19.9681 31.9944 19.9681 31.0393 19.9681C30.9407 19.9799 30.8408 19.9615 30.7527 19.9151C30.6646 19.8687 30.5925 19.7966 30.5456 19.7081C28.85 16.9709 27.1508 14.2374 25.4481 11.5074C25.4051 11.4424 25.3729 11.372 25.3193 11.2691C25.376 11.2568 25.4333 11.2478 25.491 11.242L42.5652 11.2041C43.6759 11.2041 44.7867 11.2041 45.8974 11.2041C46.5252 11.2041 46.5628 11.2637 46.2569 11.7999C44.8833 14.2266 43.5042 16.6478 42.1198 19.0635L32.81 35.4757C32.6437 35.7628 32.4666 36.0444 32.3164 36.3369C32.1661 36.6294 31.9461 36.6186 31.812 36.3369C31.6778 36.0553 31.4471 35.7032 31.2754 35.3836C27.4442 28.7465 23.6165 22.1022 19.7924 15.4507C18.4563 13.127 17.1095 10.8141 15.7519 8.49043C15.7115 8.39822 15.6441 8.32074 15.5587 8.26844C15.4733 8.21614 15.374 8.19153 15.2744 8.19793H8.26653C8.18068 8.19793 8.09482 8.19793 7.98214 8.19793V56.0153H23.5968C23.5968 53.9786 23.5646 51.9474 23.5539 49.9162C23.5432 47.885 23.5539 45.8755 23.6076 43.828C23.7095 43.9688 23.8222 44.1043 23.9134 44.2505C24.7076 45.5342 25.4964 46.8125 26.2851 48.1017L30.6744 55.2894C30.7291 55.4028 30.7956 55.51 30.873 55.609C30.9973 55.7582 31.0911 55.9307 31.1491 56.1166C31.2071 56.3025 31.2282 56.4982 31.211 56.6923C31.211 58.9564 31.211 61.2206 31.211 63.4901V63.918C30.9427 63.9992 0.706018 64.0318 0.051381 63.9613C-0.0130095 63.6905 -0.0130095 0.544345 0.0299175 0.100187C0.126503 0.100187 0.223089 0.100187 0.325041 0.100187H1.85431H10.6275C12.9778 0.0712992 15.3334 0.0387999 17.6944 0.00268954C17.8448 -0.0102745 17.9956 0.0238424 18.1261 0.100402C18.2567 0.176962 18.3608 0.292251 18.4241 0.430597C20.5705 4.18968 22.7168 7.9596 24.9437 11.697C25.9578 13.4303 27.0578 15.1095 28.1364 16.8048C29.4617 18.8956 30.8193 20.9756 32.1393 23.061C32.1759 23.127 32.2171 23.1904 32.2627 23.2505Z" fill="#FA559A"/>
<path d="M21.4934 0.00268555L26.532 0.0676842H27.0686C35.7613 0.0568511 44.4808 0.00268555 53.2004 0.0406014C56.6989 0.0406014 60.176 0.0406014 63.7067 0.0839338H63.9375C64.0126 0.338512 64.0287 63.528 63.9375 63.9234H32.7993C32.7993 63.7988 32.7993 63.6851 32.7993 63.5768V56.3348C32.7907 56.1762 32.8403 56.02 32.9388 55.8961C33.0715 55.7246 33.1916 55.5435 33.2983 55.3544L39.5979 45.0142C39.7803 44.7217 39.9627 44.4347 40.1345 44.1476C40.2071 44.03 40.3064 43.9316 40.4242 43.8605C40.4242 43.9797 40.4242 44.0988 40.4242 44.2126C40.4242 45.1659 40.4242 46.1138 40.4242 47.0671C40.4242 49.9162 40.4045 52.7653 40.3652 55.6144C40.3652 55.7498 40.3652 55.8853 40.3652 56.0423H55.9799V8.19793H55.5613C53.5867 8.19793 51.6174 8.19793 49.6589 8.19793C43.6885 8.21959 37.7127 8.24668 31.7315 8.27918C30.0573 8.27918 28.3778 8.34418 26.7037 8.39292C26.5829 8.41122 26.4595 8.38943 26.3521 8.33081C26.2447 8.2722 26.159 8.17994 26.1081 8.06793C24.6414 5.51132 23.1676 2.9511 21.6866 0.387261C21.6276 0.284346 21.5793 0.170599 21.4934 0.00268555Z" fill="#FA559A"/>
</g>
<defs>
<clipPath id="clip0">
<rect width="64" height="64" fill="white"/>
</clipPath>
</defs>
</svg>
